<svg height="512" viewBox="0 0 64 64" width="512" xmlns="http://www.w3.org/2000/svg"><g id="Tools"><path d="m59.1 59.1a4.008 4.008 0 0 1 -5.66 0l-26.8-26.8-6.66-6.66 5.66-5.66 6.66 6.66 7.07 7.07 19.73 19.73a4.008 4.008 0 0 1 0 5.66z" fill="#ee8700"/><path d="m19.98 25.64 6.66 6.66 7.07 7.07 19.73 19.73a4.008 4.008 0 0 0 5.66 0l-36.29-36.29z" fill="#cc7400"/><path d="m61.037 12.034-6.117 6.117-6.364-.707-.707-6.364 6.117-6.117a9.726 9.726 0 0 0 -2.581-.346 9.989 9.989 0 0 0 -10 10 9.747 9.747 0 0 0 .132 1.6 2 2 0 0 1 -.553 1.747l-8.671 8.67-5.66 5.66-7.963 7.964a2 2 0 0 1 -1.747.552 9.848 9.848 0 0 0 -1.6-.131 10 10 0 1 0 10 10 9.848 9.848 0 0 0 -.131-1.6 2 2 0 0 1 .552-1.747l22.292-22.297a2 2 0 0 1 1.747-.553 9.747 9.747 0 0 0 1.6.132 9.989 9.989 0 0 0 10-10 9.726 9.726 0 0 0 -.346-2.58zm-41.632 42.726-5.577 1.494-4.082-4.082 1.494-5.572 5.577-1.5 4.083 4.083z" fill="#006df0"/><path d="m23.638 11.128 12.605-4.584-1.415-1.414-12.119 1.347a20 20 0 0 0 -11.933 5.735l-2.818 2.817a1 1 0 0 0 0 1.415l2.122 2.121-.707.707-2.486-.5a2 2 0 0 0 -1.807.547l-2.071 2.074 9.9 9.9 2.072-2.072a2 2 0 0 0 .547-1.806l-.5-2.486.708-.707 2.121 2.121a1 1 0 0 0 1.414 0l7.778-7.778-4.143-4.143a2 2 0 0 1 .732-3.294z" fill="#ed1c24"/><path d="m13.828 56.254 5.577-1.494 1.494-5.577-2.041-2.041-7.071 7.071z" fill="none"/><path d="m11.24 46.595-1.494 5.577 2.041 2.041 7.071-7.071-2.041-2.041z" fill="none"/><path d="m61.037 12.034-6.117 6.117-6.364-.707-29.7 29.7 2.044 2.039-1.495 5.577-5.577 1.494-2.041-2.041-3.537 3.537a10 10 0 0 0 17.071-7.072 9.848 9.848 0 0 0 -.131-1.6 2 2 0 0 1 .552-1.747l22.294-22.296a2 2 0 0 1 1.747-.553 9.747 9.747 0 0 0 1.6.132 9.989 9.989 0 0 0 10-10 9.726 9.726 0 0 0 -.346-2.58z" fill="#005ece"/><path d="m7.608 18.497h2.393v14h-2.393z" fill="#a7a9ac" transform="matrix(.707 -.707 .707 .707 -15.45 13.694)"/><path d="m42.293 22.293-20 20a1 1 0 1 0 1.414 1.414l20-20a1 1 0 0 0 -1.414-1.414z" fill="#004fac"/></g></svg>